<?xml version="1.0" encoding="UTF-8" standalone="no"?>
<svg
   xmlns:osb="http://www.openswatchbook.org/uri/2009/osb"
   xmlns:dc="http://purl.org/dc/elements/1.1/"
   xmlns:cc="http://creativecommons.org/ns#"
   xmlns:rdf="http://www.w3.org/1999/02/22-rdf-syntax-ns#"
   xmlns:svg="http://www.w3.org/2000/svg"
   xmlns="http://www.w3.org/2000/svg"
   xmlns:sodipodi="http://sodipodi.sourceforge.net/DTD/sodipodi-0.dtd"
   xmlns:inkscape="http://www.inkscape.org/namespaces/inkscape"
   height="14.416"
   width="15.416"
   version="1.1"
   id="svg1061"
   sodipodi:docname="blackboard_erase_2.svg"
   inkscape:version="0.92.3 (2405546, 2018-03-11)">
  <metadata
     id="metadata6">
    <rdf:RDF>
      <cc:Work
         rdf:about="">
        <dc:format>image/svg+xml</dc:format>
        <dc:type
           rdf:resource="http://purl.org/dc/dcmitype/StillImage" />
        <dc:title></dc:title>
      </cc:Work>
    </rdf:RDF>
  </metadata>
  <defs
     id="defs1065">
    <linearGradient
       id="linearGradient1386"
       osb:paint="solid">
      <stop
         style="stop-color:#ffb649;stop-opacity:1;"
         offset="0"
         id="stop1384" />
    </linearGradient>
  </defs>
  <sodipodi:namedview
     id="namedview1063"
     pagecolor="#ffffff"
     bordercolor="#000000"
     borderopacity="0.25"
     inkscape:showpageshadow="2"
     inkscape:pageopacity="0.0"
     inkscape:pagecheckerboard="0"
     inkscape:deskcolor="#d1d1d1"
     showgrid="false"
     inkscape:zoom="30.547013"
     inkscape:cx="6.4663844"
     inkscape:cy="7.267892"
     inkscape:window-width="1920"
     inkscape:window-height="991"
     inkscape:window-x="-9"
     inkscape:window-y="-9"
     inkscape:window-maximized="1"
     inkscape:current-layer="svg1061"
     inkscape:measure-start="11.6214,5.16008"
     inkscape:measure-end="11.7524,4.46852" />
  <path
     style="fill:#ffb649;fill-opacity:1;stroke:none;stroke-opacity:1"
     d="M 0,4.333 V 1.937 C 0,1.3956667 0.191,0.93733333 0.573,0.562 0.955,0.18733333 1.4096667,0 1.937,0 h 11.542 c 0.527333,0 0.982,0.18733333 1.364,0.562 0.382,0.37533333 0.573,0.8336667 0.573,1.375 v 2.396 z"
     id="path822" />
  <path
     style="fill:#ffb649;fill-opacity:1;stroke:none;stroke-opacity:1"
     d="m 4.354,5.729 v 8.687 H 1.937 C 1.4096667,14.416 0.955,14.225 0.573,13.843 0.191,13.461 0,13.006333 0,12.479 v -6.75 z"
     id="path820" />
  <path
     style="fill:#ffb649;fill-opacity:1;stroke:none;stroke-opacity:1"
     d="m 9.666,5.729 v 8.687 H 5.75 V 5.729 Z"
     id="path1059" />
  <path
     inkscape:connector-curvature="0"
     d="m 15.267333,12.191267 q -0.138239,0.138238 -0.324853,0.13824 -0.186632,0 -0.324863,-0.138232 l -1.403099,-1.403099 -1.403099,1.403099 q -0.138238,0.138236 -0.324863,0.138232 -0.186624,-9e-6 -0.324854,-0.13824 -0.138239,-0.138238 -0.13824,-0.324851 0,-0.186634 0.138232,-0.324863 l 1.403101,-1.403102 -1.403096,-1.4030946 q -0.138238,-0.1382375 -0.138232,-0.3248628 -8e-6,-0.1866221 0.13823,-0.3248615 0.138237,-0.1382365 0.324864,-0.1382306 0.186621,-9.5e-6 0.324862,0.1382306 l 1.403099,1.4030996 1.4031,-1.4030996 q 0.138238,-0.1382373 0.324864,-0.1382306 0.186611,0 0.324851,0.1382393 0.138237,0.1382365 0.13824,0.3248532 0,0.1866317 -0.138232,0.3248625 l -1.403103,1.4031045 1.403099,1.403102 q 0.138238,0.138235 0.138233,0.32486 -10e-6,0.186622 -0.138241,0.324853 z"
     id="path2"
     style="fill:#ffb649;fill-opacity:0.99512197;stroke-width:0.19549596" />
</svg>
