<?xml version="1.0" encoding="UTF-8" standalone="no"?>
<svg
   xmlns:dc="http://purl.org/dc/elements/1.1/"
   xmlns:cc="http://creativecommons.org/ns#"
   xmlns:rdf="http://www.w3.org/1999/02/22-rdf-syntax-ns#"
   xmlns:svg="http://www.w3.org/2000/svg"
   xmlns="http://www.w3.org/2000/svg"
   xmlns:sodipodi="http://sodipodi.sourceforge.net/DTD/sodipodi-0.dtd"
   xmlns:inkscape="http://www.inkscape.org/namespaces/inkscape"
   height="14.416"
   width="15.416"
   version="1.1"
   id="svg1061"
   sodipodi:docname="blackboard_compare_condition.svg"
   inkscape:version="0.92.3 (2405546, 2018-03-11)">
  <metadata
     id="metadata6">
    <rdf:RDF>
      <cc:Work
         rdf:about="">
        <dc:format>image/svg+xml</dc:format>
        <dc:type
           rdf:resource="http://purl.org/dc/dcmitype/StillImage" />
        <dc:title />
      </cc:Work>
    </rdf:RDF>
  </metadata>
  <defs
     id="defs1065" />
  <sodipodi:namedview
     id="namedview1063"
     pagecolor="#ffffff"
     bordercolor="#000000"
     borderopacity="0.25"
     inkscape:showpageshadow="2"
     inkscape:pageopacity="0.0"
     inkscape:pagecheckerboard="0"
     inkscape:deskcolor="#d1d1d1"
     showgrid="false"
     inkscape:zoom="21.6"
     inkscape:cx="0.52315063"
     inkscape:cy="5.5692657"
     inkscape:window-width="1920"
     inkscape:window-height="991"
     inkscape:window-x="-9"
     inkscape:window-y="-9"
     inkscape:window-maximized="1"
     inkscape:current-layer="svg1061"
     inkscape:measure-start="9.67593,4.30556"
     inkscape:measure-end="11.1111,4.25926" />
  <path
     style="fill:#ffb649;fill-opacity:1;stroke:none;stroke-opacity:1"
     d="M 0,4.333 V 1.937 Q 0,1.125 0.573,0.562 1.146,0 1.937,0 h 11.542 q 0.791,0 1.364,0.562 0.573,0.563 0.573,1.375 v 2.396 z"
     id="path833" />
  <path
     style="fill:#ffb649;fill-opacity:1;stroke:none;stroke-opacity:1"
     d="m 4.354,5.729 v 8.687 H 1.937 q -0.791,0 -1.364,-0.573 Q 0,13.27 0,12.479 v -6.75 z"
     id="path831" />
  <path
     style="fill:#ffb649;fill-opacity:1;stroke:none;stroke-opacity:1"
     d="m 9.666,5.729 v 8.687 H 5.75 V 5.729 Z"
     id="path1059" />
  <path
     inkscape:connector-curvature="0"
     d="m 14.22981,13.570802 -2.921074,-2.921073 q -0.10327,-0.103272 -0.154906,-0.228671 -0.05163,-0.1254 -0.05163,-0.258176 0,-0.132775 0.05163,-0.2581751 0.05164,-0.125401 0.154906,-0.22867 l 2.935826,-2.9358267 q 0.206541,-0.2065407 0.494222,-0.2065407 0.287681,0 0.494223,0.2065407 0.20654,0.2065405 0.199164,0.5015985 -0.0074,0.2950579 -0.213917,0.5015984 l -2.419475,2.4194749 2.434228,2.434228 q 0.20654,0.206541 0.20654,0.486846 0,0.280304 -0.20654,0.486846 -0.206542,0.20654 -0.501599,0.20654 -0.295058,0 -0.501598,-0.20654 z"
     id="path2"
     style="fill:#ffb649;fill-opacity:1;stroke-width:0.29505792" />
</svg>
